%FSTAX23Y23*%
%MOIN*%
%SFA1B1*%

%IPPOS*%
%ADD17C,0.061811*%
%ADD18R,0.061811X0.061811*%
%ADD23C,0.025000*%
%ADD24R,0.061024X0.061024*%
%ADD25C,0.061024*%
%ADD26C,0.055118*%
%ADD27R,0.062598X0.062598*%
%ADD28C,0.062598*%
%ADD29R,0.062598X0.062598*%
%ADD30C,0.062992*%
%ADD31R,0.089764X0.083464*%
%ADD32R,0.120000X0.075000*%
%ADD33R,0.066929X0.043307*%
%ADD34C,0.035000*%
%LNpcb1-1*%
%LPD*%
G36*
X02141Y00008D02*
X00388D01*
Y00631*
X00886*
X00888Y00626*
X00885Y00624*
X00845Y00585*
X00844Y00585*
X00835*
X00826Y00583*
X00818Y00578*
X00811Y00571*
X00806Y00563*
X00804Y00554*
Y00545*
X00806Y00536*
X00811Y00528*
X00818Y00521*
X00819Y00521*
Y00362*
X00798*
Y00303*
X00881*
Y00362*
X0086*
Y00521*
X00861Y00521*
X00868Y00528*
X00873Y00536*
X00875Y00545*
Y00554*
X00875Y00555*
X00908Y00589*
X00969*
X00969Y00584*
X00966Y00583*
X00958Y00578*
X00951Y00571*
X00946Y00563*
X00944Y00554*
Y00545*
X00946Y00536*
X00951Y00528*
X00958Y00521*
X00966Y00516*
X00975Y00514*
X00984*
X00985Y00514*
X01059Y00441*
Y00354*
X01021*
Y00362*
X00938*
Y00303*
X01021*
Y00312*
X01042*
X01044Y00307*
X01043Y00305*
X0104Y00295*
Y00284*
X01043Y00274*
X01048Y00265*
X01055Y00258*
X01064Y00253*
X01074Y0025*
X01085*
X01095Y00253*
X01104Y00258*
X01111Y00265*
X01116Y00274*
X01119Y00284*
Y00295*
X01116Y00305*
X01111Y00314*
X01104Y00321*
X011Y00323*
Y0033*
Y0045*
X01099Y00458*
X01094Y00464*
X01015Y00544*
X01015Y00545*
Y00554*
X01013Y00563*
X01008Y00571*
X01001Y00578*
X00993Y00583*
X0099Y00584*
X0099Y00589*
X01261*
X01329Y00521*
Y0034*
X0133Y00332*
X01335Y00325*
X01395Y00265*
X01402Y0026*
X0141Y00259*
X01418Y0026*
X01419Y00261*
X01452*
X01455Y00258*
X01464Y00253*
X01474Y0025*
X01485*
X01495Y00253*
X01504Y00258*
X01511Y00265*
X01516Y00274*
X01519Y00284*
Y00295*
X01516Y00305*
X01511Y00314*
X01504Y00321*
X01495Y00326*
X01485Y00329*
X01474*
X01464Y00326*
X01455Y00321*
X01448Y00314*
X01443Y00305*
X01442Y00303*
X01415*
X0137Y00348*
Y0053*
X01369Y00538*
X01364Y00544*
X01284Y00624*
X01281Y00626*
X01283Y00631*
X01629*
X01631Y00626*
X01628Y00624*
X01613Y0061*
X01609Y00603*
X01608Y00599*
X01572*
Y005*
X01591*
X01593Y005*
Y00453*
X01589Y00451*
X01582Y00444*
X01577Y00435*
X01574Y00425*
Y00414*
X01577Y00404*
X01582Y00395*
X01589Y00388*
X01598Y00383*
X01608Y0038*
X01619*
X01629Y00383*
X01638Y00388*
X01645Y00395*
X0165Y00404*
X01653Y00414*
Y00425*
X0165Y00435*
X01645Y00444*
X01638Y00451*
X01634Y00453*
Y005*
X01678*
Y00589*
X01709*
X0171Y00584*
X01706Y00583*
X01698Y00578*
X01691Y00571*
X01686Y00563*
X01684Y00554*
Y00545*
X01686Y00536*
X01691Y00528*
X01698Y00521*
X01699Y00521*
Y00382*
X01678*
Y00323*
X01761*
Y00332*
X01798*
X0184Y00289*
Y00284*
X01843Y00274*
X01848Y00265*
X01855Y00258*
X01864Y00253*
X01874Y0025*
X01885*
X01895Y00253*
X01904Y00258*
X01911Y00265*
X01916Y00274*
X01919Y00284*
Y00295*
X01916Y00305*
X01911Y00314*
X01904Y00321*
X01895Y00326*
X01885Y00329*
X01874*
X01864Y00326*
X01863Y00326*
X01821Y00367*
X01814Y00372*
X01806Y00374*
X01761*
Y00382*
X0174*
Y00521*
X01741Y00521*
X01748Y00528*
X01753Y00536*
X01755Y00545*
Y00554*
X01753Y00563*
X01748Y00571*
X01741Y00578*
X01733Y00583*
X01729Y00584*
X0173Y00589*
X01958*
X01961Y00586*
Y00579*
X01932*
Y0048*
X01995*
X01997Y00479*
X0204*
Y00444*
X02119*
Y00523*
X02049*
X02046Y00528*
X02046Y00529*
X02046Y00529*
X02046Y0053*
X02045Y00533*
X02045Y00537*
X02045Y00537*
X02044Y00538*
X02042Y00541*
X0204Y00544*
X0204Y00544*
X0204Y00544*
X02038Y00546*
Y00579*
X02002*
Y00595*
X02001Y00603*
X01996Y0061*
X01982Y00624*
X01979Y00626*
X0198Y00631*
X02141*
Y00008*
G37*
%LNpcb1-2*%
%LPC*%
G36*
X0054Y00607D02*
X0048D01*
Y00581*
X00466*
X00465Y00582*
X00455Y00588*
X0045Y00589*
Y0055*
Y0051*
X00455Y00511*
X00465Y00517*
X00472Y00524*
X00475Y00529*
X0048*
Y00512*
X0054*
Y0056*
Y00607*
G37*
G36*
X0062D02*
X0056D01*
Y0057*
X0062*
Y00607*
G37*
G36*
X01509Y00601D02*
X01464D01*
Y0056*
X01509*
Y00601*
G37*
G36*
X01444D02*
X01399D01*
Y0056*
X01444*
Y00601*
G37*
G36*
X0043Y00589D02*
X00424Y00588D01*
X00414Y00582*
X00407Y00575*
X00401Y00565*
X004Y0056*
X0043*
Y00589*
G37*
G36*
X0062Y0055D02*
X0056D01*
Y00512*
X0062*
Y0055*
G37*
G36*
X0043Y0054D02*
X004D01*
X00401Y00534*
X00407Y00524*
X00414Y00517*
X00424Y00511*
X0043Y0051*
Y0054*
G37*
G36*
X01509D02*
X01464D01*
Y00498*
X01509*
Y0054*
G37*
G36*
X01444D02*
X01399D01*
Y00498*
X01444*
Y0054*
G37*
G36*
X01247Y00461D02*
X01216D01*
Y0043*
X01247*
Y00461*
G37*
G36*
X01196D02*
X01164D01*
Y0043*
X01196*
Y00461*
G37*
G36*
X0073Y00379D02*
Y0035D01*
X00759*
X00757Y00355*
X00752Y00364*
X00744Y00372*
X00735Y00377*
X0073Y00379*
G37*
G36*
X0071D02*
X00704Y00377D01*
X00695Y00372*
X00687Y00364*
X00682Y00355*
X0068Y0035*
X0071*
Y00379*
G37*
G36*
X00759Y0033D02*
X0073D01*
Y003*
X00735Y00302*
X00744Y00307*
X00752Y00315*
X00757Y00324*
X00759Y0033*
G37*
G36*
X0071D02*
X0068D01*
X00682Y00324*
X00687Y00315*
X00695Y00307*
X00704Y00302*
X0071Y003*
Y0033*
G37*
G36*
X01247Y0041D02*
X01164D01*
Y00378*
X01185*
Y00335*
X01181Y00331*
X01174*
X01163Y00328*
X01154Y00323*
X01146Y00315*
X01141Y00306*
X01139Y003*
X0122*
X01218Y00306*
X01217Y00308*
X0122Y00311*
X01225Y00318*
X01226Y00326*
Y00378*
X01247*
Y0041*
G37*
G36*
X0122Y0028D02*
X0119D01*
Y00249*
X01196Y00251*
X01205Y00256*
X01213Y00264*
X01218Y00273*
X0122Y0028*
G37*
G36*
X0117D02*
X01139D01*
X01141Y00273*
X01146Y00264*
X01154Y00256*
X01163Y00251*
X0117Y00249*
Y0028*
G37*
G36*
X0054Y00258D02*
X0048D01*
Y00231*
X00466*
X00465Y00232*
X00455Y00238*
X0045Y00239*
Y002*
Y0016*
X00455Y00161*
X00465Y00167*
X00472Y00174*
X00475Y00179*
X0048*
Y00163*
X0054*
Y0021*
Y00258*
G37*
G36*
X0043Y00239D02*
X00424Y00238D01*
X00414Y00232*
X00407Y00225*
X00401Y00215*
X004Y0021*
X0043*
Y00239*
G37*
G36*
X0062Y002D02*
X0056D01*
Y00163*
X0062*
Y002*
G37*
G36*
X0043Y0019D02*
X004D01*
X00401Y00184*
X00407Y00174*
X00414Y00167*
X00424Y00161*
X0043Y0016*
Y0019*
G37*
G36*
X01389Y00201D02*
X01344D01*
Y0016*
X01389*
Y00201*
G37*
G36*
X01585Y00329D02*
X01574D01*
X01564Y00326*
X01555Y00321*
X01548Y00314*
X01543Y00305*
X0154Y00295*
Y00284*
X01543Y00274*
X01548Y00265*
X01555Y00258*
X01564Y00253*
X01574Y0025*
X0158*
X01603Y00227*
Y00163*
X01599Y00161*
X01592Y00154*
X0159Y0015*
X01558*
Y00199*
X01452*
Y001*
X01532*
X01534Y00099*
X01536Y001*
X01558*
Y00109*
X0159*
X01592Y00105*
X01599Y00098*
X01608Y00093*
X01618Y0009*
X01629*
X01639Y00093*
X01648Y00098*
X01655Y00105*
X0166Y00114*
X01663Y00124*
Y00135*
X0166Y00145*
X01655Y00154*
X01648Y00161*
X01644Y00163*
Y00236*
X01643Y00244*
X01638Y00251*
X01616Y00273*
X01616Y00274*
X01619Y00284*
Y00295*
X01616Y00305*
X01611Y00314*
X01604Y00321*
X01595Y00326*
X01585Y00329*
G37*
G36*
X01324Y00201D02*
X01279D01*
Y0015*
X01257*
Y00171*
X01226*
Y0013*
Y00088*
X01257*
Y00109*
X01279*
Y00098*
X01324*
Y0015*
Y00201*
G37*
G36*
X01206Y00171D02*
X01174D01*
Y0014*
X01206*
Y00171*
G37*
G36*
X01389Y0014D02*
X01344D01*
Y00098*
X01389*
Y0014*
G37*
G36*
X01206Y0012D02*
X01174D01*
Y00088*
X01206*
Y0012*
G37*
G36*
X01867Y00579D02*
X01761D01*
Y0048*
X01838*
X01959Y00359*
Y00323*
X01955Y00321*
X01948Y00314*
X01943Y00305*
X0194Y00295*
Y00284*
X01943Y00274*
X01948Y00265*
X01955Y00258*
X01964Y00253*
X01974Y0025*
X01979*
X02059Y00171*
Y00109*
X02055Y00107*
X02048Y001*
X02043Y00091*
X0204Y00081*
Y0007*
X02043Y0006*
X02048Y00051*
X02055Y00044*
X02064Y00039*
X02074Y00036*
X02085*
X02095Y00039*
X02104Y00044*
X02111Y00051*
X02116Y0006*
X02119Y0007*
Y00081*
X02116Y00091*
X02111Y001*
X02104Y00107*
X021Y00109*
Y0018*
X02099Y00188*
X02094Y00194*
X02016Y00273*
X02016Y00274*
X02019Y00284*
Y00295*
X02016Y00305*
X02011Y00314*
X02004Y00321*
X02Y00323*
Y00367*
X01999Y00375*
X01994Y00382*
X01867Y00509*
Y00579*
G37*
G36*
X00478Y00488D02*
D01*
X00401*
Y00411*
X00478*
X00482Y00407*
Y00394*
X00549*
Y00334*
X00551Y00326*
X00555Y00319*
X00612Y00263*
X0061Y00258*
X0056*
Y0022*
X0062*
Y00248*
X00625Y0025*
X00637Y00238*
X00643Y00233*
X00651Y00232*
X00681*
Y00201*
X00699*
Y00109*
X00686Y00096*
X00618*
Y00136*
X00539*
X00536Y00138*
X00526Y0014*
X00499*
X00493Y00139*
X00453*
X0045Y00138*
X00401*
Y00061*
X00478*
X00482Y00057*
Y00045*
X00618*
Y00055*
X00695*
X00703Y00056*
X0071Y00061*
X00734Y00085*
X00739Y00092*
X0074Y001*
Y00201*
X00758*
Y00224*
X00798*
Y00197*
X00819*
Y00078*
X00818Y00078*
X00811Y00071*
X00806Y00063*
X00804Y00054*
Y00045*
X00806Y00036*
X00811Y00028*
X00818Y00021*
X00826Y00016*
X00835Y00014*
X00844*
X00853Y00016*
X00861Y00021*
X00868Y00028*
X00868Y00029*
X00951*
X00951Y00028*
X00958Y00021*
X00966Y00016*
X00975Y00014*
X00984*
X00993Y00016*
X01001Y00021*
X01008Y00028*
X01008Y00029*
X01691*
X01691Y00028*
X01698Y00021*
X01706Y00016*
X01715Y00014*
X01724*
X01733Y00016*
X01741Y00021*
X01748Y00028*
X01753Y00036*
X01755Y00045*
Y00054*
X01753Y00063*
X01748Y00071*
X01741Y00078*
X0174Y00078*
Y00217*
X01761*
Y00276*
X01678*
Y00217*
X01699*
Y00078*
X01698Y00078*
X01691Y00071*
X01691Y0007*
X01008*
X01008Y00071*
X01001Y00078*
X00993Y00083*
X00984Y00085*
X00975*
X00966Y00083*
X00958Y00078*
X00951Y00071*
X00951Y0007*
X00868*
X00868Y00071*
X00861Y00078*
X0086Y00078*
Y00197*
X00881*
Y00205*
X00938*
Y00197*
X01021*
Y00256*
X00938*
Y00247*
X00881*
Y00256*
X00828*
X00824Y00259*
X00818Y00264*
X0081Y00265*
X00758*
Y00278*
X00681*
Y00273*
X0066*
X00591Y00343*
Y00394*
X00618*
Y00485*
X00532*
X0053Y00486*
X00527Y00485*
X00482*
X00478Y00488*
G37*
%LNpcb1-3*%
%LPD*%
G54D17*
X0044Y002D03*
Y0055D03*
G54D18*
X0044Y001D03*
Y0045D03*
G54D23*
X0118Y0029D02*
Y003D01*
X01206Y00326D02*
Y0042D01*
X0118Y003D02*
X01206Y00326D01*
X01613Y0042D02*
Y0052D01*
Y00538D02*
X01625Y0055D01*
X01611Y00538D02*
X01613D01*
X01593Y0052D02*
X01611Y00538D01*
X01593Y0052D02*
X01613D01*
X0057Y00334D02*
Y00419D01*
Y00334D02*
X00651Y00253D01*
X00706*
X0072Y0024*
X0055Y00075D02*
X00695D01*
X0072Y001*
Y0024*
X0053Y0046D02*
X0057Y00419D01*
X0072Y0024D02*
X00725Y00245D01*
X0081*
X00828Y00226D02*
X0084D01*
X0081Y00245D02*
X00828Y00226D01*
X0198Y0029D02*
Y00367D01*
X01817Y0053D02*
X0198Y00367D01*
X01814Y0053D02*
X01817D01*
X0198Y0028D02*
X0208Y0018D01*
X0198Y0028D02*
Y0029D01*
X0208Y00076D02*
Y0018D01*
X01806Y00353D02*
X0187Y0029D01*
X0188*
X0172Y00353D02*
X01806D01*
X0141Y0028D02*
X01412Y00282D01*
X01472*
X0148Y0029*
X0135Y0034D02*
X0141Y0028D01*
X0135Y0034D02*
Y0053D01*
X0127Y0061D02*
X0135Y0053D01*
X009Y0061D02*
X0127D01*
X0084Y0055D02*
X009Y0061D01*
X01623Y0013D02*
Y00236D01*
X0158Y0028D02*
X01623Y00236D01*
X0158Y0028D02*
Y0029D01*
X0108D02*
Y0033D01*
X01982Y0053D02*
Y00595D01*
X01967Y0061D02*
X01982Y00595D01*
X01643Y0061D02*
X01967D01*
X01628Y00595D02*
X01643Y0061D01*
X01628Y0055D02*
Y00595D01*
X0084Y00333D02*
Y0055D01*
Y00226D02*
X0098D01*
X0084Y0005D02*
Y00226D01*
X0108Y0033D02*
Y0045D01*
X0098Y00333D02*
X01076D01*
X0108Y0033*
X0098Y0055D02*
X0108Y0045D01*
X0098Y0005D02*
X0172D01*
X0084D02*
X0098D01*
X0172Y00353D02*
Y0055D01*
Y0005D02*
Y00246D01*
X00526Y00114D02*
X0055Y0009D01*
X00546Y00214D02*
X0055Y0021D01*
X01982Y0053D02*
X02025D01*
X01983Y00514D02*
X02025Y0053D01*
X01997Y005D02*
X02063D01*
X01983Y00514D02*
X01997Y005D01*
X02063D02*
X0208Y00483D01*
X01537Y0013D02*
X01623D01*
X01216D02*
X01302D01*
X01305Y00126*
Y0012D02*
Y00126D01*
Y0012D02*
X01334Y0015D01*
X01534Y00126D02*
X01537Y0013D01*
X01534Y0012D02*
Y00126D01*
X01505Y0015D02*
X01534Y0012D01*
G54D24*
X0072Y0024D03*
G54D25*
X0072Y0034D03*
G54D26*
X0084Y0005D03*
Y0055D03*
X0172Y0005D03*
Y0055D03*
X0098D03*
Y0005D03*
G54D27*
X01206Y0042D03*
X01216Y0013D03*
G54D28*
X01613Y0042D03*
X01623Y0013D03*
X0208Y00076D03*
G54D29*
X0208Y00483D03*
G54D30*
X0188Y0029D03*
X0198D03*
X0158D03*
X0148D03*
X0108D03*
X0118D03*
G54D31*
X01814Y0053D03*
X01985D03*
X01625Y0055D03*
X01454D03*
X01505Y0015D03*
X01334D03*
G54D32*
X0055Y0021D03*
Y0009D03*
X0055Y0044D03*
Y0056D03*
G54D33*
X0172Y00246D03*
Y00353D03*
X0084Y00333D03*
Y00226D03*
X0098Y00333D03*
Y00226D03*
G54D34*
X0044Y0055D02*
X00445Y00555D01*
X00545*
X0055Y0056*
X0044Y0045D02*
X00445Y00445D01*
X00515*
X0053Y0046*
X0044Y001D02*
X00453Y00113D01*
X00498*
X00499Y00114*
X00526*
X0044Y002D02*
X00445Y00205D01*
X00537*
X00546Y00214*
M02*