%FSTAX23Y23*%
%MOIN*%
%SFA1B1*%

%IPPOS*%
%ADD10C,0.009843*%
%ADD11C,0.007874*%
%ADD12C,0.010000*%
%ADD38C,0.005000*%
%LNpcb1-1*%
%LPD*%
G54D10*
X00444Y00365D02*
D01*
X00444Y00365*
X00444Y00365*
X00444Y00366*
X00444Y00366*
X00444Y00366*
X00444Y00367*
X00444Y00367*
X00444Y00367*
X00443Y00368*
X00443Y00368*
X00443Y00368*
X00443Y00368*
X00443Y00369*
X00442Y00369*
X00442Y00369*
X00442Y00369*
X00441Y00369*
X00441Y00369*
X00441Y00369*
X0044Y0037*
X0044Y0037*
X0044Y0037*
X00439*
X00439Y0037*
X00439Y0037*
X00438Y00369*
X00438Y00369*
X00438Y00369*
X00437Y00369*
X00437Y00369*
X00437Y00369*
X00436Y00369*
X00436Y00368*
X00436Y00368*
X00436Y00368*
X00436Y00368*
X00435Y00367*
X00435Y00367*
X00435Y00367*
X00435Y00366*
X00435Y00366*
X00435Y00366*
X00435Y00365*
X00435Y00365*
X00435Y00365*
X00435Y00364*
X00435Y00364*
X00435Y00364*
X00435Y00363*
X00435Y00363*
X00435Y00363*
X00435Y00362*
X00435Y00362*
X00436Y00362*
X00436Y00361*
X00436Y00361*
X00436Y00361*
X00436Y00361*
X00437Y00361*
X00437Y0036*
X00437Y0036*
X00438Y0036*
X00438Y0036*
X00438Y0036*
X00439Y0036*
X00439Y0036*
X00439Y0036*
X0044*
X0044Y0036*
X0044Y0036*
X00441Y0036*
X00441Y0036*
X00441Y0036*
X00442Y0036*
X00442Y0036*
X00442Y00361*
X00443Y00361*
X00443Y00361*
X00443Y00361*
X00443Y00361*
X00443Y00362*
X00444Y00362*
X00444Y00362*
X00444Y00363*
X00444Y00363*
X00444Y00363*
X00444Y00364*
X00444Y00364*
X00444Y00364*
X00444Y00365*
G54D11*
X02061Y0053D02*
D01*
X02061Y0053*
X02061Y0053*
X02061Y0053*
X02061Y00531*
X02061Y00531*
X02061Y00531*
X0206Y00531*
X0206Y00532*
X0206Y00532*
X0206Y00532*
X0206Y00532*
X0206Y00532*
X02059Y00533*
X02059Y00533*
X02059Y00533*
X02059Y00533*
X02058Y00533*
X02058Y00533*
X02058Y00533*
X02058Y00533*
X02057Y00533*
X02057Y00533*
X02057*
X02057Y00533*
X02056Y00533*
X02056Y00533*
X02056Y00533*
X02056Y00533*
X02055Y00533*
X02055Y00533*
X02055Y00533*
X02055Y00533*
X02054Y00532*
X02054Y00532*
X02054Y00532*
X02054Y00532*
X02054Y00532*
X02054Y00531*
X02053Y00531*
X02053Y00531*
X02053Y00531*
X02053Y0053*
X02053Y0053*
X02053Y0053*
X02053Y0053*
X02053Y00529*
X02053Y00529*
X02053Y00529*
X02053Y00528*
X02053Y00528*
X02053Y00528*
X02054Y00528*
X02054Y00527*
X02054Y00527*
X02054Y00527*
X02054Y00527*
X02054Y00527*
X02055Y00526*
X02055Y00526*
X02055Y00526*
X02055Y00526*
X02056Y00526*
X02056Y00526*
X02056Y00526*
X02056Y00526*
X02057Y00526*
X02057Y00526*
X02057*
X02057Y00526*
X02058Y00526*
X02058Y00526*
X02058Y00526*
X02058Y00526*
X02059Y00526*
X02059Y00526*
X02059Y00526*
X02059Y00526*
X0206Y00527*
X0206Y00527*
X0206Y00527*
X0206Y00527*
X0206Y00527*
X0206Y00528*
X02061Y00528*
X02061Y00528*
X02061Y00528*
X02061Y00529*
X02061Y00529*
X02061Y00529*
X02061Y0053*
X01386Y0055D02*
D01*
X01386Y0055*
X01386Y0055*
X01386Y0055*
X01386Y00551*
X01386Y00551*
X01386Y00551*
X01385Y00551*
X01385Y00552*
X01385Y00552*
X01385Y00552*
X01385Y00552*
X01385Y00552*
X01384Y00553*
X01384Y00553*
X01384Y00553*
X01384Y00553*
X01383Y00553*
X01383Y00553*
X01383Y00553*
X01383Y00553*
X01382Y00553*
X01382Y00553*
X01382*
X01382Y00553*
X01381Y00553*
X01381Y00553*
X01381Y00553*
X01381Y00553*
X0138Y00553*
X0138Y00553*
X0138Y00553*
X0138Y00553*
X01379Y00552*
X01379Y00552*
X01379Y00552*
X01379Y00552*
X01379Y00552*
X01379Y00551*
X01378Y00551*
X01378Y00551*
X01378Y00551*
X01378Y0055*
X01378Y0055*
X01378Y0055*
X01378Y0055*
X01378Y00549*
X01378Y00549*
X01378Y00549*
X01378Y00548*
X01378Y00548*
X01378Y00548*
X01379Y00548*
X01379Y00547*
X01379Y00547*
X01379Y00547*
X01379Y00547*
X01379Y00547*
X0138Y00546*
X0138Y00546*
X0138Y00546*
X0138Y00546*
X01381Y00546*
X01381Y00546*
X01381Y00546*
X01381Y00546*
X01382Y00546*
X01382Y00546*
X01382*
X01382Y00546*
X01383Y00546*
X01383Y00546*
X01383Y00546*
X01383Y00546*
X01384Y00546*
X01384Y00546*
X01384Y00546*
X01384Y00546*
X01385Y00547*
X01385Y00547*
X01385Y00547*
X01385Y00547*
X01385Y00547*
X01385Y00548*
X01386Y00548*
X01386Y00548*
X01386Y00548*
X01386Y00549*
X01386Y00549*
X01386Y00549*
X01386Y0055*
X01158Y0042D02*
D01*
X01158Y0042*
X01157Y0042*
X01157Y0042*
X01157Y00421*
X01157Y00421*
X01157Y00421*
X01157Y00421*
X01157Y00422*
X01157Y00422*
X01157Y00422*
X01156Y00422*
X01156Y00422*
X01156Y00423*
X01156Y00423*
X01156Y00423*
X01155Y00423*
X01155Y00423*
X01155Y00423*
X01155Y00423*
X01154Y00423*
X01154Y00423*
X01154Y00423*
X01153*
X01153Y00423*
X01153Y00423*
X01153Y00423*
X01152Y00423*
X01152Y00423*
X01152Y00423*
X01152Y00423*
X01151Y00423*
X01151Y00423*
X01151Y00422*
X01151Y00422*
X01151Y00422*
X0115Y00422*
X0115Y00422*
X0115Y00421*
X0115Y00421*
X0115Y00421*
X0115Y00421*
X0115Y0042*
X0115Y0042*
X0115Y0042*
X0115Y0042*
X0115Y00419*
X0115Y00419*
X0115Y00419*
X0115Y00418*
X0115Y00418*
X0115Y00418*
X0115Y00418*
X0115Y00417*
X0115Y00417*
X01151Y00417*
X01151Y00417*
X01151Y00417*
X01151Y00416*
X01151Y00416*
X01152Y00416*
X01152Y00416*
X01152Y00416*
X01152Y00416*
X01153Y00416*
X01153Y00416*
X01153Y00416*
X01153Y00416*
X01154*
X01154Y00416*
X01154Y00416*
X01155Y00416*
X01155Y00416*
X01155Y00416*
X01155Y00416*
X01156Y00416*
X01156Y00416*
X01156Y00416*
X01156Y00417*
X01156Y00417*
X01157Y00417*
X01157Y00417*
X01157Y00417*
X01157Y00418*
X01157Y00418*
X01157Y00418*
X01157Y00418*
X01157Y00419*
X01157Y00419*
X01158Y00419*
X01158Y0042*
X01266Y0015D02*
D01*
X01266Y0015*
X01266Y0015*
X01266Y0015*
X01266Y00151*
X01266Y00151*
X01266Y00151*
X01265Y00151*
X01265Y00152*
X01265Y00152*
X01265Y00152*
X01265Y00152*
X01265Y00152*
X01264Y00153*
X01264Y00153*
X01264Y00153*
X01264Y00153*
X01263Y00153*
X01263Y00153*
X01263Y00153*
X01263Y00153*
X01262Y00153*
X01262Y00153*
X01262*
X01262Y00153*
X01261Y00153*
X01261Y00153*
X01261Y00153*
X01261Y00153*
X0126Y00153*
X0126Y00153*
X0126Y00153*
X0126Y00153*
X01259Y00152*
X01259Y00152*
X01259Y00152*
X01259Y00152*
X01259Y00152*
X01259Y00151*
X01258Y00151*
X01258Y00151*
X01258Y00151*
X01258Y0015*
X01258Y0015*
X01258Y0015*
X01258Y0015*
X01258Y00149*
X01258Y00149*
X01258Y00149*
X01258Y00148*
X01258Y00148*
X01258Y00148*
X01259Y00148*
X01259Y00147*
X01259Y00147*
X01259Y00147*
X01259Y00147*
X01259Y00147*
X0126Y00146*
X0126Y00146*
X0126Y00146*
X0126Y00146*
X01261Y00146*
X01261Y00146*
X01261Y00146*
X01261Y00146*
X01262Y00146*
X01262Y00146*
X01262*
X01262Y00146*
X01263Y00146*
X01263Y00146*
X01263Y00146*
X01263Y00146*
X01264Y00146*
X01264Y00146*
X01264Y00146*
X01264Y00146*
X01265Y00147*
X01265Y00147*
X01265Y00147*
X01265Y00147*
X01265Y00147*
X01265Y00148*
X01266Y00148*
X01266Y00148*
X01266Y00148*
X01266Y00149*
X01266Y00149*
X01266Y00149*
X01266Y0015*
X01168Y0013D02*
D01*
X01168Y0013*
X01167Y0013*
X01167Y0013*
X01167Y00131*
X01167Y00131*
X01167Y00131*
X01167Y00131*
X01167Y00132*
X01167Y00132*
X01167Y00132*
X01166Y00132*
X01166Y00132*
X01166Y00133*
X01166Y00133*
X01166Y00133*
X01165Y00133*
X01165Y00133*
X01165Y00133*
X01165Y00133*
X01164Y00133*
X01164Y00133*
X01164Y00133*
X01163*
X01163Y00133*
X01163Y00133*
X01163Y00133*
X01162Y00133*
X01162Y00133*
X01162Y00133*
X01162Y00133*
X01161Y00133*
X01161Y00133*
X01161Y00132*
X01161Y00132*
X01161Y00132*
X0116Y00132*
X0116Y00132*
X0116Y00131*
X0116Y00131*
X0116Y00131*
X0116Y00131*
X0116Y0013*
X0116Y0013*
X0116Y0013*
X0116Y0013*
X0116Y00129*
X0116Y00129*
X0116Y00129*
X0116Y00128*
X0116Y00128*
X0116Y00128*
X0116Y00128*
X0116Y00127*
X0116Y00127*
X01161Y00127*
X01161Y00127*
X01161Y00127*
X01161Y00126*
X01161Y00126*
X01162Y00126*
X01162Y00126*
X01162Y00126*
X01162Y00126*
X01163Y00126*
X01163Y00126*
X01163Y00126*
X01163Y00126*
X01164*
X01164Y00126*
X01164Y00126*
X01165Y00126*
X01165Y00126*
X01165Y00126*
X01165Y00126*
X01166Y00126*
X01166Y00126*
X01166Y00126*
X01166Y00127*
X01166Y00127*
X01167Y00127*
X01167Y00127*
X01167Y00127*
X01167Y00128*
X01167Y00128*
X01167Y00128*
X01167Y00128*
X01167Y00129*
X01167Y00129*
X01168Y00129*
X01168Y0013*
X02083Y00535D02*
D01*
X02083Y00536*
X02083Y00536*
X02083Y00536*
X02083Y00536*
X02083Y00537*
X02083Y00537*
X02083Y00537*
X02083Y00537*
X02083Y00538*
X02083Y00538*
X02082Y00538*
X02082Y00538*
X02082Y00539*
X02082Y00539*
X02081Y00539*
X02081Y00539*
X02081Y00539*
X02081Y00539*
X0208Y00539*
X0208Y00539*
X0208Y00539*
X0208Y00539*
X02079*
X02079Y00539*
X02079Y00539*
X02079Y00539*
X02078Y00539*
X02078Y00539*
X02078Y00539*
X02078Y00539*
X02077Y00539*
X02077Y00539*
X02077Y00538*
X02077Y00538*
X02076Y00538*
X02076Y00538*
X02076Y00537*
X02076Y00537*
X02076Y00537*
X02076Y00537*
X02076Y00536*
X02076Y00536*
X02076Y00536*
X02076Y00536*
X02076Y00535*
X02076Y00535*
X02076Y00535*
X02076Y00535*
X02076Y00534*
X02076Y00534*
X02076Y00534*
X02076Y00534*
X02076Y00533*
X02076Y00533*
X02076Y00533*
X02077Y00533*
X02077Y00532*
X02077Y00532*
X02077Y00532*
X02078Y00532*
X02078Y00532*
X02078Y00532*
X02078Y00532*
X02079Y00532*
X02079Y00532*
X02079Y00531*
X02079Y00531*
X0208*
X0208Y00531*
X0208Y00532*
X0208Y00532*
X02081Y00532*
X02081Y00532*
X02081Y00532*
X02081Y00532*
X02082Y00532*
X02082Y00532*
X02082Y00532*
X02082Y00533*
X02083Y00533*
X02083Y00533*
X02083Y00533*
X02083Y00534*
X02083Y00534*
X02083Y00534*
X02083Y00534*
X02083Y00535*
X02083Y00535*
X02083Y00535*
X02083Y00535*
X00767Y00179D02*
Y004D01*
X00672Y00179D02*
X00767D01*
X00672D02*
Y004D01*
X00767*
X0089Y0015D02*
Y0045D01*
X0079Y0015D02*
X0089D01*
X0079D02*
Y0045D01*
X0089*
X0084Y0009D02*
Y0015D01*
Y0045D02*
Y0051D01*
X0177Y0015D02*
Y0045D01*
X0167Y0015D02*
X0177D01*
X0167D02*
Y0045D01*
X0177*
X0172Y0009D02*
Y0015D01*
Y0045D02*
Y0051D01*
X00388Y0039D02*
X00491D01*
X00388D02*
Y00609D01*
X00491*
Y0039D02*
Y00609D01*
X01749Y00284D02*
Y00315D01*
X0169Y00284D02*
Y00315D01*
X0081Y00264D02*
Y00295D01*
X00869Y00264D02*
Y00295D01*
X0095Y00264D02*
Y00295D01*
X01009Y00264D02*
Y00295D01*
X0098Y0045D02*
Y0051D01*
Y0009D02*
Y0015D01*
X0093Y0045D02*
X0103D01*
X0093Y0015D02*
Y0045D01*
Y0015D02*
X0103D01*
Y0045*
G54D12*
X00626Y00453D02*
X0062Y0046D01*
Y00473*
X00626Y0048*
X00653*
X0066Y00473*
Y0046*
X00653Y00453*
X0062Y0044D02*
X00646D01*
X0066Y00426*
X00646Y00413*
X0062*
Y004D02*
Y00373D01*
Y00386*
X0066*
X0062Y0036D02*
Y00346D01*
Y00353*
X0066*
Y0036*
Y00346*
X00626Y003D02*
X0062Y00306D01*
Y0032*
X00626Y00326*
X00633*
X0064Y0032*
Y00306*
X00646Y003*
X00653*
X0066Y00306*
Y0032*
X00653Y00326*
X0066Y00286D02*
X0062D01*
Y00266*
X00626Y0026*
X0064*
X00646Y00266*
Y00286*
Y00273D02*
X0066Y0026D01*
Y00246D02*
X00653D01*
Y0024*
X0066*
Y00246*
Y00213D02*
Y00193D01*
X00653Y00186*
X00646Y00193*
Y00206*
X0064Y00213*
X00633Y00206*
Y00186*
X0066Y00173D02*
X0062D01*
X00646D02*
X00633Y00153D01*
X00646Y00173D02*
X0066Y00153D01*
X01349Y00599D02*
Y0054D01*
X01319*
X01309Y0055*
Y00589*
X01319Y00599*
X01349*
X0125D02*
X0129D01*
Y0057*
X0127Y00579*
X0126*
X0125Y0057*
Y0055*
X0126Y0054*
X0128*
X0129Y0055*
X01463Y00069D02*
X0149D01*
Y00049*
X01476*
X0149*
Y0003*
X01443Y00056D02*
X0143D01*
X01423Y00049*
Y0003*
X01443*
X0145Y00036*
X01443Y00043*
X01423*
X0141Y00069D02*
Y0003D01*
X0139*
X01383Y00036*
Y00043*
Y00049*
X0139Y00056*
X0141*
X0137Y0003D02*
X01356D01*
X01363*
Y00069*
X0137*
X0133Y00056D02*
X01316D01*
X0131Y00049*
Y0003*
X0133*
X01336Y00036*
X0133Y00043*
X0131*
X01296Y00069D02*
Y0003D01*
X01276*
X0127Y00036*
Y00043*
Y00049*
X01276Y00056*
X01296*
X01256Y0003D02*
Y00036D01*
X0125*
Y0003*
X01256*
X01223D02*
X01203D01*
X01196Y00036*
X01203Y00043*
X01216*
X01223Y00049*
X01216Y00056*
X01196*
X01183Y0003D02*
Y00069D01*
Y00043D02*
X01163Y00056D01*
X01183Y00043D02*
X01163Y0003D01*
X0204Y00103D02*
Y00143D01*
X02026Y00129*
X02013Y00143*
Y00103*
X02D02*
Y00109D01*
X01993*
Y00103*
X02*
X01966Y00143D02*
Y00103D01*
X01946*
X0194Y00109*
Y00116*
X01946Y00123*
X01966*
X01946*
X0194Y00129*
Y00136*
X01946Y00143*
X01966*
X0192Y00129D02*
X01906D01*
X019Y00123*
Y00103*
X0192*
X01926Y00109*
X0192Y00116*
X019*
X01886Y00103D02*
X01873D01*
X0188*
Y00143*
X01886*
X01846Y00103D02*
X01833D01*
X01826Y00109*
Y00123*
X01833Y00129*
X01846*
X01853Y00123*
Y00109*
X01846Y00103*
X018Y0009D02*
X01793D01*
X01786Y00096*
Y00129*
X01806*
X01813Y00123*
Y00109*
X01806Y00103*
X01786*
X01766Y00129D02*
X01753D01*
X01746Y00123*
Y00103*
X01766*
X01773Y00109*
X01766Y00116*
X01746*
X0073Y00159D02*
X00749D01*
X00739*
Y0011*
X00749Y001*
X00759*
X00769Y0011*
X0071Y001D02*
X0069D01*
X007*
Y00159*
X0071Y00149*
X0179Y0033D02*
X01849D01*
Y0036*
X01839Y0037*
X0182*
X0181Y0036*
Y0033*
Y0035D02*
X0179Y0037D01*
X01849Y00429D02*
X01839Y00409D01*
X0182Y00389*
X018*
X0179Y00399*
Y00419*
X018Y00429*
X0181*
X0182Y00419*
Y00389*
X007Y0042D02*
X00759D01*
Y0045*
X00749Y0046*
X0073*
X0072Y0045*
Y0042*
Y0044D02*
X007Y0046D01*
Y00509D02*
X00759D01*
X0073Y00479*
Y00519*
X0105Y004D02*
X01109D01*
Y0043*
X01099Y0044*
X0108*
X0107Y0043*
Y004*
Y0042D02*
X0105Y0044D01*
Y00499D02*
Y00459D01*
X01089Y00499*
X01099*
X01109Y00489*
Y00469*
X01099Y00459*
X01299Y00529D02*
Y0047D01*
X01269*
X01259Y0048*
Y00519*
X01269Y00529*
X01299*
X0124Y00519D02*
X0123Y00529D01*
X0121*
X012Y00519*
Y00509*
X0121Y005*
X012Y0049*
Y0048*
X0121Y0047*
X0123*
X0124Y0048*
Y0049*
X0123Y005*
X0124Y00509*
Y00519*
X0123Y005D02*
X0121D01*
X02019Y00439D02*
Y0038D01*
X01989*
X01979Y0039*
Y00429*
X01989Y00439*
X02019*
X0196D02*
X0192D01*
Y00429*
X0196Y0039*
Y0038*
X01409Y00299D02*
Y0024D01*
X01379*
X01369Y0025*
Y00289*
X01379Y00299*
X01409*
X0132Y0024D02*
Y00299D01*
X0135Y0027*
X0131*
G54D38*
X01814Y00601D02*
X01985D01*
X01814Y00458D02*
X01985D01*
X01814D02*
Y00475D01*
Y00584D02*
Y00601D01*
X01985Y00458D02*
Y00475D01*
Y00584D02*
Y00601D01*
X01454Y00478D02*
X01625D01*
X01454Y00621D02*
X01625D01*
Y00604D02*
Y00621D01*
Y00478D02*
Y00495D01*
X01454Y00604D02*
Y00621D01*
Y00478D02*
Y00495D01*
X01249Y0042D02*
X01317D01*
X01502D02*
X0157D01*
X01317Y00373D02*
Y0042D01*
Y00466*
X01502*
Y0042D02*
Y00466D01*
Y00373D02*
Y0042D01*
X01317Y00373D02*
X01502D01*
X01334Y00078D02*
X01505D01*
X01334Y00221D02*
X01505D01*
Y00204D02*
Y00221D01*
Y00078D02*
Y00095D01*
X01334Y00204D02*
Y00221D01*
Y00078D02*
Y00095D01*
X01259Y0013D02*
X01327D01*
X01512D02*
X0158D01*
X01327Y00083D02*
Y0013D01*
Y00176*
X01512*
Y0013D02*
Y00176D01*
Y00083D02*
Y0013D01*
X01327Y00083D02*
X01512D01*
X0208Y00372D02*
Y0044D01*
Y00119D02*
Y00187D01*
X02033Y00372D02*
X0208D01*
X02126*
Y00187D02*
Y00372D01*
X0208Y00187D02*
X02126D01*
X02033D02*
X0208D01*
X02033D02*
Y00372D01*
M02*