G04*
G04 #@! TF.GenerationSoftware,Altium Limited,Altium Designer,22.7.1 (60)*
G04*
G04 Layer_Color=24703*
%FSLAX44Y44*%
%MOMM*%
G71*
G04*
G04 #@! TF.SameCoordinates,9463790D-2481-4E08-BA15-92DD0F7A3D72*
G04*
G04*
G04 #@! TF.FilePolarity,Negative*
G04*
G01*
G75*
%ADD14R,1.7532X1.7532*%
%ADD15C,1.7532*%
%ADD16C,1.6032*%
%ADD17C,1.5700*%
%ADD18R,1.5700X1.5700*%
%ADD19R,1.7932X1.7932*%
%ADD20C,1.7932*%
%ADD21R,1.7932X1.7932*%
%ADD22C,1.8032*%
%ADD35R,2.4832X2.3232*%
%ADD36R,3.2512X2.1082*%
%ADD37R,1.9032X1.3032*%
D14*
X182880Y60960D02*
D03*
D15*
Y86360D02*
D03*
D16*
X213360Y12700D02*
D03*
Y139700D02*
D03*
X436880Y12700D02*
D03*
Y139700D02*
D03*
X248920D02*
D03*
Y12700D02*
D03*
D17*
X111760Y50800D02*
D03*
Y139700D02*
D03*
D18*
Y25400D02*
D03*
Y114300D02*
D03*
D19*
X306340Y106680D02*
D03*
X308880Y33020D02*
D03*
D20*
X409940Y106680D02*
D03*
X412480Y33020D02*
D03*
X528320Y19320D02*
D03*
D21*
Y122920D02*
D03*
D22*
X477520Y73660D02*
D03*
X502920D02*
D03*
X401320D02*
D03*
X375920D02*
D03*
X274320D02*
D03*
X299720D02*
D03*
D35*
X460950Y134620D02*
D03*
X504250D02*
D03*
X412810Y139700D02*
D03*
X369510D02*
D03*
X382330Y38100D02*
D03*
X339030D02*
D03*
D36*
X139803Y53588D02*
D03*
Y23108D02*
D03*
X139700Y111760D02*
D03*
Y142240D02*
D03*
D37*
X436880Y62700D02*
D03*
Y89700D02*
D03*
X213360Y84620D02*
D03*
Y57620D02*
D03*
X248920Y84620D02*
D03*
Y57620D02*
D03*
M02*
