G04*
G04 #@! TF.GenerationSoftware,Altium Limited,Altium Designer,22.7.1 (60)*
G04*
G04 Layer_Physical_Order=2*
G04 Layer_Color=16711680*
%FSLAX44Y44*%
%MOMM*%
G71*
G04*
G04 #@! TF.SameCoordinates,9463790D-2481-4E08-BA15-92DD0F7A3D72*
G04*
G04*
G04 #@! TF.FilePolarity,Positive*
G04*
G01*
G75*
%ADD17C,1.5700*%
%ADD18R,1.5700X1.5700*%
%ADD23C,0.6350*%
%ADD24R,1.5500X1.5500*%
%ADD25C,1.5500*%
%ADD26C,1.4000*%
%ADD27R,1.5900X1.5900*%
%ADD28C,1.5900*%
%ADD29R,1.5900X1.5900*%
%ADD30C,1.6000*%
%ADD31R,2.2800X2.1200*%
%ADD32R,3.0480X1.9050*%
%ADD33R,1.7000X1.1000*%
%ADD34C,0.8890*%
G36*
X544061Y2039D02*
X98559D01*
Y160521D01*
X225294D01*
X225679Y159251D01*
X224846Y158694D01*
X214813Y148661D01*
X214549Y148732D01*
X212171D01*
X209874Y148117D01*
X207814Y146927D01*
X206133Y145246D01*
X204944Y143186D01*
X204328Y140889D01*
Y138511D01*
X204944Y136214D01*
X206133Y134154D01*
X207814Y132473D01*
X208051Y132336D01*
Y92152D01*
X202828D01*
Y77088D01*
X223892D01*
Y92152D01*
X218669D01*
Y132336D01*
X218906Y132473D01*
X220587Y134154D01*
X221777Y136214D01*
X222392Y138511D01*
Y140889D01*
X222321Y141153D01*
X230799Y149631D01*
X246179D01*
X246346Y148361D01*
X245434Y148117D01*
X243374Y146927D01*
X241693Y145246D01*
X240504Y143186D01*
X239888Y140889D01*
Y138511D01*
X240504Y136214D01*
X241693Y134154D01*
X243374Y132473D01*
X245434Y131284D01*
X247731Y130668D01*
X250109D01*
X250373Y130739D01*
X269011Y112101D01*
Y89929D01*
X259452D01*
Y92152D01*
X238388D01*
Y77088D01*
X259452D01*
Y79311D01*
X264729D01*
X265364Y78211D01*
X264972Y77532D01*
X264288Y74981D01*
Y72339D01*
X264972Y69788D01*
X266292Y67500D01*
X268160Y65632D01*
X270448Y64312D01*
X272999Y63628D01*
X275641D01*
X278192Y64312D01*
X280480Y65632D01*
X282348Y67500D01*
X283668Y69788D01*
X284352Y72339D01*
Y74981D01*
X283668Y77532D01*
X282348Y79820D01*
X280480Y81688D01*
X279629Y82179D01*
Y83820D01*
Y114300D01*
X279629Y114300D01*
X279225Y116332D01*
X278074Y118054D01*
X278074Y118054D01*
X257881Y138247D01*
X257952Y138511D01*
Y140889D01*
X257337Y143186D01*
X256147Y145246D01*
X254466Y146927D01*
X252406Y148117D01*
X251494Y148361D01*
X251661Y149631D01*
X320381D01*
X337591Y132421D01*
Y86360D01*
X337591Y86360D01*
X337995Y84328D01*
X339146Y82606D01*
X354386Y67366D01*
X356108Y66215D01*
X358140Y65811D01*
X360172Y66215D01*
X360605Y66505D01*
X368888D01*
X369760Y65632D01*
X372048Y64312D01*
X374599Y63628D01*
X377241D01*
X379792Y64312D01*
X382080Y65632D01*
X383948Y67500D01*
X385268Y69788D01*
X385952Y72339D01*
Y74981D01*
X385268Y77532D01*
X383948Y79820D01*
X382080Y81688D01*
X379792Y83008D01*
X377241Y83692D01*
X374599D01*
X372048Y83008D01*
X369760Y81688D01*
X367892Y79820D01*
X366572Y77532D01*
X366462Y77123D01*
X359646D01*
X348209Y88559D01*
Y134620D01*
X348209Y134620D01*
X347805Y136652D01*
X346654Y138374D01*
X326334Y158694D01*
X325501Y159251D01*
X325886Y160521D01*
X413963D01*
X414348Y159251D01*
X413576Y158735D01*
X413576Y158735D01*
X409856Y155015D01*
X408705Y153293D01*
X408514Y152332D01*
X399378D01*
Y127068D01*
X404347D01*
X404631Y127011D01*
Y115141D01*
X403811Y114668D01*
X401952Y112809D01*
X400638Y110533D01*
X399958Y107994D01*
Y105366D01*
X400638Y102827D01*
X401952Y100551D01*
X403811Y98692D01*
X406087Y97378D01*
X408626Y96698D01*
X411254D01*
X413793Y97378D01*
X416069Y98692D01*
X417928Y100551D01*
X419242Y102827D01*
X419922Y105366D01*
Y107994D01*
X419242Y110533D01*
X417928Y112809D01*
X416069Y114668D01*
X415249Y115141D01*
Y127068D01*
X426242D01*
Y149672D01*
X434291D01*
X434458Y148402D01*
X433394Y148117D01*
X431334Y146927D01*
X429653Y145246D01*
X428464Y143186D01*
X427848Y140889D01*
Y138511D01*
X428464Y136214D01*
X429653Y134154D01*
X431334Y132473D01*
X431571Y132336D01*
Y97232D01*
X426348D01*
Y82168D01*
X447412D01*
Y84391D01*
X456741D01*
X467488Y73644D01*
Y72339D01*
X468172Y69788D01*
X469492Y67500D01*
X471360Y65632D01*
X473648Y64312D01*
X476199Y63628D01*
X478841D01*
X481392Y64312D01*
X483680Y65632D01*
X485548Y67500D01*
X486868Y69788D01*
X487552Y72339D01*
Y74981D01*
X486868Y77532D01*
X485548Y79820D01*
X483680Y81688D01*
X481392Y83008D01*
X478841Y83692D01*
X476199D01*
X473648Y83008D01*
X473326Y82822D01*
X462694Y93454D01*
X460972Y94605D01*
X458940Y95009D01*
X458940Y95009D01*
X447412D01*
Y97232D01*
X442189D01*
Y132336D01*
X442426Y132473D01*
X444107Y134154D01*
X445297Y136214D01*
X445912Y138511D01*
Y140889D01*
X445297Y143186D01*
X444107Y145246D01*
X442426Y146927D01*
X440366Y148117D01*
X439302Y148402D01*
X439469Y149672D01*
X497531D01*
X498141Y149062D01*
Y147252D01*
X490818D01*
Y121988D01*
X506767D01*
X507280Y121886D01*
X507280Y121886D01*
X518338D01*
Y112938D01*
X538302D01*
Y132902D01*
X520609D01*
X519759Y134172D01*
X519819Y134428D01*
X519804Y134524D01*
X519823Y134620D01*
X519639Y135544D01*
X519489Y136473D01*
X519438Y136556D01*
X519419Y136652D01*
X518895Y137435D01*
X518401Y138236D01*
X518322Y138293D01*
X518268Y138374D01*
X517682Y138765D01*
Y147252D01*
X508759D01*
Y151261D01*
X508355Y153293D01*
X507204Y155015D01*
X507204Y155015D01*
X503484Y158735D01*
X502712Y159251D01*
X503097Y160521D01*
X544061D01*
Y2039D01*
D02*
G37*
%LPC*%
G36*
X137160Y154305D02*
X121920D01*
Y147574D01*
X118580D01*
X118140Y148014D01*
X115770Y149382D01*
X114300Y149776D01*
Y139700D01*
Y129624D01*
X115770Y130018D01*
X118140Y131386D01*
X120074Y133320D01*
X120678Y134366D01*
X121920D01*
Y130175D01*
X137160D01*
Y142240D01*
Y154305D01*
D02*
G37*
G36*
X157480D02*
X142240D01*
Y144780D01*
X157480D01*
Y154305D01*
D02*
G37*
G36*
X383450Y152840D02*
X372050D01*
Y142240D01*
X383450D01*
Y152840D01*
D02*
G37*
G36*
X366970D02*
X355570D01*
Y142240D01*
X366970D01*
Y152840D01*
D02*
G37*
G36*
X109220Y149776D02*
X107750Y149382D01*
X105380Y148014D01*
X103446Y146080D01*
X102078Y143710D01*
X101684Y142240D01*
X109220D01*
Y149776D01*
D02*
G37*
G36*
X157480Y139700D02*
X142240D01*
Y130175D01*
X157480D01*
Y139700D01*
D02*
G37*
G36*
X109220Y137160D02*
X101684D01*
X102078Y135690D01*
X103446Y133320D01*
X105380Y131386D01*
X107750Y130018D01*
X109220Y129624D01*
Y137160D01*
D02*
G37*
G36*
X383450D02*
X372050D01*
Y126560D01*
X383450D01*
Y137160D01*
D02*
G37*
G36*
X366970D02*
X355570D01*
Y126560D01*
X366970D01*
Y137160D01*
D02*
G37*
G36*
X316830Y117170D02*
X308880D01*
Y109220D01*
X316830D01*
Y117170D01*
D02*
G37*
G36*
X303800D02*
X295850D01*
Y109220D01*
X303800D01*
Y117170D01*
D02*
G37*
G36*
X185420Y96332D02*
Y88900D01*
X192852D01*
X192469Y90332D01*
X191114Y92678D01*
X189198Y94594D01*
X186852Y95949D01*
X185420Y96332D01*
D02*
G37*
G36*
X180340D02*
X178908Y95949D01*
X176562Y94594D01*
X174646Y92678D01*
X173291Y90332D01*
X172908Y88900D01*
X180340D01*
Y96332D01*
D02*
G37*
G36*
X192852Y83820D02*
X185420D01*
Y76388D01*
X186852Y76771D01*
X189198Y78126D01*
X191114Y80042D01*
X192469Y82388D01*
X192852Y83820D01*
D02*
G37*
G36*
X180340D02*
X172908D01*
X173291Y82388D01*
X174646Y80042D01*
X176562Y78126D01*
X178908Y76771D01*
X180340Y76388D01*
Y83820D01*
D02*
G37*
G36*
X316830Y104140D02*
X295850D01*
Y96190D01*
X301031D01*
Y85090D01*
X300141Y84200D01*
X298332D01*
X295652Y83482D01*
X293248Y82094D01*
X291286Y80132D01*
X289898Y77728D01*
X289489Y76200D01*
X309951D01*
X309542Y77728D01*
X309228Y78271D01*
X310094Y79137D01*
X310094Y79137D01*
X311245Y80860D01*
X311649Y82891D01*
Y96190D01*
X316830D01*
Y104140D01*
D02*
G37*
G36*
X309951Y71120D02*
X302260D01*
Y63429D01*
X303788Y63838D01*
X306192Y65226D01*
X308154Y67188D01*
X309542Y69592D01*
X309951Y71120D01*
D02*
G37*
G36*
X297180D02*
X289489D01*
X289898Y69592D01*
X291286Y67188D01*
X293248Y65226D01*
X295652Y63838D01*
X297180Y63429D01*
Y71120D01*
D02*
G37*
G36*
X137263Y65653D02*
X122023D01*
Y58707D01*
X118547D01*
X118140Y59114D01*
X115770Y60482D01*
X114300Y60876D01*
Y50800D01*
Y40724D01*
X115770Y41118D01*
X118140Y42486D01*
X120074Y44420D01*
X120697Y45499D01*
X122023D01*
Y41523D01*
X137263D01*
Y53588D01*
Y65653D01*
D02*
G37*
G36*
X109220Y60876D02*
X107750Y60482D01*
X105380Y59114D01*
X103446Y57180D01*
X102078Y54810D01*
X101684Y53340D01*
X109220D01*
Y60876D01*
D02*
G37*
G36*
X157583Y51048D02*
X142343D01*
Y41523D01*
X157583D01*
Y51048D01*
D02*
G37*
G36*
X109220Y48260D02*
X101684D01*
X102078Y46790D01*
X103446Y44420D01*
X105380Y42486D01*
X107750Y41118D01*
X109220Y40724D01*
Y48260D01*
D02*
G37*
G36*
X352970Y51240D02*
X341570D01*
Y40640D01*
X352970D01*
Y51240D01*
D02*
G37*
G36*
X402641Y83692D02*
X399999D01*
X397448Y83008D01*
X395160Y81688D01*
X393292Y79820D01*
X391972Y77532D01*
X391288Y74981D01*
Y72339D01*
X391972Y69788D01*
X393292Y67500D01*
X395160Y65632D01*
X397448Y64312D01*
X399999Y63628D01*
X401380D01*
X407171Y57837D01*
Y41481D01*
X406351Y41008D01*
X404492Y39149D01*
X404019Y38329D01*
X395762D01*
Y50732D01*
X368898D01*
Y25468D01*
X389242D01*
X389755Y25366D01*
X390268Y25468D01*
X395762D01*
Y27711D01*
X404019D01*
X404492Y26891D01*
X406351Y25032D01*
X408627Y23718D01*
X411166Y23038D01*
X413794D01*
X416333Y23718D01*
X418609Y25032D01*
X420468Y26891D01*
X421782Y29167D01*
X422462Y31706D01*
Y34334D01*
X421782Y36873D01*
X420468Y39149D01*
X418609Y41008D01*
X417789Y41481D01*
Y60036D01*
X417789Y60036D01*
X417385Y62068D01*
X416234Y63790D01*
X410510Y69514D01*
X410668Y69788D01*
X411352Y72339D01*
Y74981D01*
X410668Y77532D01*
X409348Y79820D01*
X407480Y81688D01*
X405192Y83008D01*
X402641Y83692D01*
D02*
G37*
G36*
X336490Y51240D02*
X325090D01*
Y38329D01*
X319370D01*
Y43510D01*
X311420D01*
Y33020D01*
Y22530D01*
X319370D01*
Y27711D01*
X325090D01*
Y24960D01*
X336490D01*
Y38100D01*
Y51240D01*
D02*
G37*
G36*
X306340Y43510D02*
X298390D01*
Y35560D01*
X306340D01*
Y43510D01*
D02*
G37*
G36*
X352970Y35560D02*
X341570D01*
Y24960D01*
X352970D01*
Y35560D01*
D02*
G37*
G36*
X306340Y30480D02*
X298390D01*
Y22530D01*
X306340D01*
Y30480D01*
D02*
G37*
G36*
X474382Y147252D02*
X447518D01*
Y121988D01*
X466874D01*
X497611Y91251D01*
Y82179D01*
X496760Y81688D01*
X494892Y79820D01*
X493572Y77532D01*
X492888Y74981D01*
Y72339D01*
X493572Y69788D01*
X494892Y67500D01*
X496760Y65632D01*
X499048Y64312D01*
X501599Y63628D01*
X502904D01*
X523011Y43521D01*
Y27781D01*
X522191Y27308D01*
X520332Y25449D01*
X519018Y23173D01*
X518338Y20634D01*
Y18006D01*
X519018Y15467D01*
X520332Y13191D01*
X522191Y11332D01*
X524467Y10018D01*
X527006Y9338D01*
X529634D01*
X532173Y10018D01*
X534449Y11332D01*
X536308Y13191D01*
X537622Y15467D01*
X538302Y18006D01*
Y20634D01*
X537622Y23173D01*
X536308Y25449D01*
X534449Y27308D01*
X533629Y27781D01*
Y45720D01*
X533629Y45720D01*
X533225Y47752D01*
X532074Y49474D01*
X532074Y49474D01*
X512082Y69466D01*
X512268Y69788D01*
X512952Y72339D01*
Y74981D01*
X512268Y77532D01*
X510948Y79820D01*
X509080Y81688D01*
X508229Y82179D01*
Y93450D01*
X508229Y93450D01*
X507825Y95482D01*
X506674Y97204D01*
X506674Y97204D01*
X474382Y129496D01*
Y147252D01*
D02*
G37*
G36*
X121642Y124182D02*
Y124182D01*
X101878D01*
Y104418D01*
X121642D01*
X122428Y103474D01*
Y100203D01*
X139561D01*
Y85000D01*
X139561Y85000D01*
X139965Y82968D01*
X141116Y81246D01*
X155535Y66826D01*
X155049Y65653D01*
X142343D01*
Y56128D01*
X157583D01*
Y63120D01*
X158756Y63606D01*
X161851Y60511D01*
X161851Y60511D01*
X163573Y59360D01*
X165605Y58956D01*
X165605Y58956D01*
X173098D01*
Y51178D01*
X177571D01*
Y27757D01*
X174421Y24607D01*
X157075D01*
Y34665D01*
X137155D01*
X136308Y35231D01*
X133781Y35734D01*
X126942D01*
X125308Y35409D01*
X115165D01*
X114527Y35282D01*
X101878D01*
Y15518D01*
X121642D01*
X122531Y14616D01*
Y11551D01*
X157075D01*
Y13989D01*
X176620D01*
X176620Y13989D01*
X178652Y14393D01*
X180374Y15544D01*
X186634Y21804D01*
X186634Y21804D01*
X187785Y23526D01*
X188189Y25558D01*
X188189Y25558D01*
Y51178D01*
X192662D01*
Y56921D01*
X202828D01*
Y50088D01*
X208051D01*
Y20064D01*
X207814Y19927D01*
X206133Y18246D01*
X204944Y16186D01*
X204328Y13889D01*
Y11511D01*
X204944Y9214D01*
X206133Y7154D01*
X207814Y5473D01*
X209874Y4284D01*
X212171Y3668D01*
X214549D01*
X216846Y4284D01*
X218906Y5473D01*
X220587Y7154D01*
X220724Y7391D01*
X241556D01*
X241693Y7154D01*
X243374Y5473D01*
X245434Y4284D01*
X247731Y3668D01*
X250109D01*
X252406Y4284D01*
X254466Y5473D01*
X256147Y7154D01*
X256284Y7391D01*
X429516D01*
X429653Y7154D01*
X431334Y5473D01*
X433394Y4284D01*
X435691Y3668D01*
X438069D01*
X440366Y4284D01*
X442426Y5473D01*
X444107Y7154D01*
X445297Y9214D01*
X445912Y11511D01*
Y13889D01*
X445297Y16186D01*
X444107Y18246D01*
X442426Y19927D01*
X442189Y20064D01*
Y55168D01*
X447412D01*
Y70232D01*
X426348D01*
Y55168D01*
X431571D01*
Y20064D01*
X431334Y19927D01*
X429653Y18246D01*
X429516Y18009D01*
X256284D01*
X256147Y18246D01*
X254466Y19927D01*
X252406Y21116D01*
X250109Y21732D01*
X247731D01*
X245434Y21116D01*
X243374Y19927D01*
X241693Y18246D01*
X241556Y18009D01*
X220724D01*
X220587Y18246D01*
X218906Y19927D01*
X218669Y20064D01*
Y50088D01*
X223892D01*
Y52311D01*
X238388D01*
Y50088D01*
X259452D01*
Y65152D01*
X238388D01*
Y62929D01*
X223892D01*
Y65152D01*
X210336D01*
X209504Y65984D01*
X207782Y67135D01*
X205750Y67539D01*
X205750Y67539D01*
X192662D01*
Y70742D01*
X173098D01*
Y69574D01*
X167804D01*
X150179Y87199D01*
Y100203D01*
X156972D01*
Y123317D01*
X135258D01*
X134620Y123444D01*
X133982Y123317D01*
X122428D01*
X121642Y124182D01*
D02*
G37*
%LPD*%
D17*
X111760Y50800D02*
D03*
Y139700D02*
D03*
D18*
Y25400D02*
D03*
Y114300D02*
D03*
D23*
X299720Y73660D02*
Y76271D01*
X306340Y82891D02*
Y106680D01*
X299720Y76271D02*
X306340Y82891D01*
X409940Y106680D02*
Y132275D01*
Y136830D02*
X412810Y139700D01*
X409415Y136830D02*
X409940D01*
X404860Y132275D02*
X409415Y136830D01*
X404860Y132275D02*
X409940D01*
X144870Y85000D02*
Y106590D01*
Y85000D02*
X165605Y64265D01*
X179575D01*
X182880Y60960D01*
X139803Y19298D02*
X176620D01*
X182880Y25558D01*
Y60960D01*
X134620Y116840D02*
X144870Y106590D01*
X182880Y60960D02*
X184150Y62230D01*
X205750D01*
X210360Y57620D02*
X213360D01*
X205750Y62230D02*
X210360Y57620D01*
X502920Y73660D02*
Y93450D01*
X461750Y134620D02*
X502920Y93450D01*
X460950Y134620D02*
X461750D01*
X502920Y71120D02*
X528320Y45720D01*
X502920Y71120D02*
Y73660D01*
X528320Y19320D02*
Y45720D01*
X458940Y89700D02*
X474980Y73660D01*
X477520D01*
X436880Y89700D02*
X458940D01*
X358140Y71120D02*
X358834Y71814D01*
X374074D01*
X375920Y73660D01*
X342900Y86360D02*
X358140Y71120D01*
X342900Y86360D02*
Y134620D01*
X322580Y154940D02*
X342900Y134620D01*
X228600Y154940D02*
X322580D01*
X213360Y139700D02*
X228600Y154940D01*
X412480Y33020D02*
Y60036D01*
X401320Y71196D02*
X412480Y60036D01*
X401320Y71196D02*
Y73660D01*
X274320D02*
Y83820D01*
X503450Y134620D02*
Y151261D01*
X499730Y154981D02*
X503450Y151261D01*
X417330Y154981D02*
X499730D01*
X413610Y151261D02*
X417330Y154981D01*
X413610Y139700D02*
Y151261D01*
X213360Y84620D02*
Y139700D01*
Y57620D02*
X248920D01*
X213360Y12700D02*
Y57620D01*
X274320Y83820D02*
Y114300D01*
X248920Y84620D02*
X273520D01*
X274320Y83820D01*
X248920Y139700D02*
X274320Y114300D01*
X248920Y12700D02*
X436880D01*
X213360D02*
X248920D01*
X436880Y89700D02*
Y139700D01*
Y12700D02*
Y62700D01*
X133781Y29130D02*
X139803Y23108D01*
X138861Y54530D02*
X139803Y53588D01*
X503450Y134620D02*
X514514D01*
X503833Y130641D02*
X514514Y134620D01*
X507280Y127195D02*
X524045D01*
X503833Y130641D02*
X507280Y127195D01*
X524045D02*
X528320Y122920D01*
X390555Y33020D02*
X412480D01*
X308880D02*
X330805D01*
X331605Y32220D01*
Y30675D02*
Y32220D01*
Y30675D02*
X339030Y38100D01*
X389755Y32220D02*
X390555Y33020D01*
X389755Y30675D02*
Y32220D01*
X382330Y38100D02*
X389755Y30675D01*
D24*
X182880Y60960D02*
D03*
D25*
Y86360D02*
D03*
D26*
X213360Y12700D02*
D03*
Y139700D02*
D03*
X436880Y12700D02*
D03*
Y139700D02*
D03*
X248920D02*
D03*
Y12700D02*
D03*
D27*
X306340Y106680D02*
D03*
X308880Y33020D02*
D03*
D28*
X409940Y106680D02*
D03*
X412480Y33020D02*
D03*
X528320Y19320D02*
D03*
D29*
Y122920D02*
D03*
D30*
X477520Y73660D02*
D03*
X502920D02*
D03*
X401320D02*
D03*
X375920D02*
D03*
X274320D02*
D03*
X299720D02*
D03*
D31*
X460950Y134620D02*
D03*
X504250D02*
D03*
X412810Y139700D02*
D03*
X369510D02*
D03*
X382330Y38100D02*
D03*
X339030D02*
D03*
D32*
X139803Y53588D02*
D03*
Y23108D02*
D03*
X139700Y111760D02*
D03*
Y142240D02*
D03*
D33*
X436880Y62700D02*
D03*
Y89700D02*
D03*
X213360Y84620D02*
D03*
Y57620D02*
D03*
X248920Y84620D02*
D03*
Y57620D02*
D03*
D34*
X111760Y139700D02*
X113030Y140970D01*
X138430D01*
X139700Y142240D01*
X111760Y114300D02*
X113030Y113030D01*
X130810D01*
X134620Y116840D01*
X111760Y25400D02*
X115165Y28805D01*
X126617D01*
X126942Y29130D01*
X133781D01*
X111760Y50800D02*
X113063Y52103D01*
X136434D01*
X138861Y54530D01*
M02*
