G04*
G04 #@! TF.GenerationSoftware,Altium Limited,Altium Designer,22.7.1 (60)*
G04*
G04 Layer_Physical_Order=1*
G04 Layer_Color=255*
%FSLAX44Y44*%
%MOMM*%
G71*
G04*
G04 #@! TF.SameCoordinates,BB791E64-C305-444D-A552-B41D82B215A1*
G04*
G04*
G04 #@! TF.FilePolarity,Positive*
G04*
G01*
G75*
%ADD17C,1.5700*%
%ADD18R,1.5700X1.5700*%
%ADD23C,0.6350*%
%ADD24R,1.5500X1.5500*%
%ADD25C,1.5500*%
%ADD26C,1.4000*%
%ADD27R,1.5900X1.5900*%
%ADD28C,1.5900*%
%ADD29R,1.5900X1.5900*%
%ADD30C,1.6000*%
D17*
X111760Y50800D02*
D03*
Y139700D02*
D03*
D18*
Y25400D02*
D03*
Y114300D02*
D03*
D23*
X474909Y73660D02*
X477520D01*
D24*
X182880Y60960D02*
D03*
D25*
Y86360D02*
D03*
D26*
X213360Y12700D02*
D03*
Y139700D02*
D03*
X436880Y12700D02*
D03*
Y139700D02*
D03*
X248920D02*
D03*
Y12700D02*
D03*
D27*
X306340Y106680D02*
D03*
X308880Y33020D02*
D03*
D28*
X409940Y106680D02*
D03*
X412480Y33020D02*
D03*
X528320Y19320D02*
D03*
D29*
Y122920D02*
D03*
D30*
X477520Y73660D02*
D03*
X502920D02*
D03*
X401320D02*
D03*
X375920D02*
D03*
X274320D02*
D03*
X299720D02*
D03*
M02*
